<?xml version="1.0" encoding="utf-8"?>
<!-- Generator: Adobe Illustrator 25.4.1, SVG Export Plug-In . SVG Version: 6.00 Build 0)  -->
<svg version="1.1" xmlns="http://www.w3.org/2000/svg" xmlns:xlink="http://www.w3.org/1999/xlink" x="0px" y="0px"
	 viewBox="0 0 841.9 595.3" style="enable-background:new 0 0 841.9 595.3;" xml:space="preserve">
<g id="Schutzzone">
	<rect x="265" y="240.9" style="fill:#FFFFFF;" width="311.8" height="113.4"/>
</g>
<g id="DAAD_Logo_Supplement_de_x2B_en_H_Basic_CMYK">
	<g>
		<g>
			<path style="fill:#1060A7;" d="M355.7,297.6c0,18.8-15.2,34-34,34c-18.8,0-34-15.2-34-34s15.2-34,34-34
				C340.5,263.6,355.7,278.9,355.7,297.6"/>
			<g>
				<path style="fill:#FFFFFF;" d="M308.1,297.6c0,0.9-0.2,1.7-0.6,2.4c-0.4,0.7-0.9,1.3-1.6,1.7c-0.7,0.4-1.5,0.6-2.4,0.6h-2v-9.5
					h2c0.9,0,1.7,0.2,2.4,0.6c0.7,0.4,1.2,1,1.6,1.7C307.9,295.9,308.1,296.7,308.1,297.6 M309.7,297.6c0-0.9-0.1-1.7-0.4-2.5
					c-0.3-0.7-0.7-1.4-1.3-2c-0.5-0.6-1.2-1-1.9-1.3c-0.7-0.3-1.6-0.5-2.5-0.5h-2.9c-0.2,0-0.4,0.1-0.6,0.2
					c-0.2,0.2-0.2,0.4-0.2,0.6V303c0,0.2,0.1,0.4,0.2,0.6c0.2,0.2,0.4,0.2,0.6,0.2h2.9c0.9,0,1.7-0.2,2.5-0.5
					c0.7-0.3,1.4-0.7,1.9-1.3c0.5-0.6,1-1.2,1.3-2C309.6,299.4,309.7,298.5,309.7,297.6"/>
				<path style="fill:#FFFFFF;" d="M330,299.7h-4.6l2.3-5.6L330,299.7z M333,302.7l-4.5-10.7c-0.1-0.4-0.4-0.6-0.8-0.6
					c-0.4,0-0.6,0.2-0.8,0.6l-4.5,10.6c-0.1,0.3-0.1,0.6,0,0.8c0.2,0.3,0.4,0.4,0.7,0.4c0.1,0,0.3,0,0.4-0.1
					c0.1-0.1,0.3-0.2,0.3-0.4l0.9-2.2h5.7l0.9,2.2c0.1,0.2,0.2,0.3,0.3,0.4c0.1,0.1,0.3,0.1,0.5,0.1c0.3,0,0.5-0.1,0.7-0.4
					C333.1,303.2,333.1,303,333,302.7"/>
				<path style="fill:#FFFFFF;" d="M318.2,299.7h-4.6l2.3-5.6L318.2,299.7z M321.2,302.7l-4.5-10.7c-0.1-0.4-0.4-0.6-0.8-0.6
					c-0.4,0-0.6,0.2-0.8,0.6l-4.5,10.6c-0.1,0.3-0.1,0.6,0,0.8c0.2,0.3,0.4,0.4,0.7,0.4c0.1,0,0.3,0,0.4-0.1
					c0.1-0.1,0.3-0.2,0.3-0.4l0.9-2.2h5.7l0.9,2.2c0.1,0.2,0.2,0.3,0.3,0.4c0.1,0.1,0.3,0.1,0.5,0.1c0.3,0,0.5-0.1,0.7-0.4
					C321.3,303.2,321.3,303,321.2,302.7"/>
				<path style="fill:#FFFFFF;" d="M343.1,297.6c0,0.9-0.2,1.7-0.6,2.4c-0.4,0.7-0.9,1.3-1.6,1.7c-0.7,0.4-1.5,0.6-2.4,0.6h-2v-9.5
					h2c0.9,0,1.7,0.2,2.4,0.6c0.7,0.4,1.2,1,1.6,1.7C342.9,295.9,343.1,296.7,343.1,297.6 M344.7,297.6c0-0.9-0.1-1.7-0.4-2.5
					c-0.3-0.7-0.7-1.4-1.3-2c-0.5-0.6-1.2-1-1.9-1.3c-0.7-0.3-1.6-0.5-2.5-0.5h-2.9c-0.2,0-0.4,0.1-0.6,0.2
					c-0.2,0.2-0.2,0.4-0.2,0.6V303c0,0.2,0.1,0.4,0.2,0.6c0.2,0.2,0.4,0.2,0.6,0.2h2.9c0.9,0,1.7-0.2,2.5-0.5
					c0.7-0.3,1.4-0.7,1.9-1.3c0.5-0.6,1-1.2,1.3-2C344.5,299.4,344.7,298.5,344.7,297.6"/>
			</g>
		</g>
		<g>
			<path style="fill:#1A171B;" d="M365,295v-6.6h1.6c1,0,1.8,0.3,2.3,0.8c0.5,0.6,0.8,1.4,0.8,2.4c0,0.5-0.1,1-0.2,1.4
				c-0.1,0.4-0.3,0.8-0.6,1s-0.6,0.5-1,0.7s-0.8,0.2-1.3,0.2H365z M365.9,294.3h0.8c0.8,0,1.3-0.2,1.7-0.7c0.4-0.5,0.6-1.1,0.6-1.9
				c0-0.8-0.2-1.5-0.6-1.9c-0.4-0.4-1-0.7-1.7-0.7h-0.8V294.3z"/>
			<path style="fill:#1A171B;" d="M373.2,295.1c-0.3,0-0.6-0.1-0.9-0.2c-0.3-0.1-0.5-0.3-0.7-0.5s-0.4-0.5-0.5-0.8
				c-0.1-0.3-0.2-0.7-0.2-1.1s0.1-0.8,0.2-1.1c0.1-0.3,0.3-0.6,0.5-0.8s0.4-0.4,0.7-0.5c0.3-0.1,0.5-0.2,0.8-0.2
				c0.3,0,0.6,0.1,0.8,0.2c0.2,0.1,0.4,0.3,0.6,0.5c0.2,0.2,0.3,0.4,0.4,0.7c0.1,0.3,0.1,0.6,0.1,0.9c0,0.1,0,0.2,0,0.3
				c0,0.1,0,0.2,0,0.2h-3.3c0,0.5,0.2,0.9,0.5,1.2s0.7,0.5,1.1,0.5c0.2,0,0.5,0,0.6-0.1s0.4-0.2,0.6-0.3l0.3,0.5
				c-0.2,0.1-0.5,0.3-0.7,0.4C373.8,295.1,373.5,295.1,373.2,295.1z M371.6,292.2h2.6c0-0.5-0.1-0.9-0.3-1.1
				c-0.2-0.3-0.5-0.4-0.9-0.4c-0.2,0-0.3,0-0.5,0.1c-0.2,0.1-0.3,0.2-0.4,0.3c-0.1,0.1-0.2,0.3-0.3,0.5
				C371.7,291.7,371.7,291.9,371.6,292.2z"/>
			<path style="fill:#1A171B;" d="M377.7,295.1c-0.5,0-0.9-0.2-1.1-0.5c-0.2-0.3-0.4-0.8-0.4-1.4v-3.1h0.8v3c0,0.5,0.1,0.8,0.2,1
				c0.1,0.2,0.4,0.3,0.7,0.3c0.3,0,0.5-0.1,0.7-0.2c0.2-0.1,0.4-0.3,0.6-0.6v-3.5h0.8v4.9h-0.7l-0.1-0.8h0c-0.2,0.3-0.5,0.5-0.7,0.6
				C378.3,295,378,295.1,377.7,295.1z"/>
			<path style="fill:#1A171B;" d="M383.3,295.1c-0.3,0-0.5,0-0.7-0.1s-0.3-0.2-0.4-0.3s-0.2-0.3-0.2-0.5s-0.1-0.4-0.1-0.7v-2.7h-0.7
				v-0.6l0.8,0l0.1-1.4h0.7v1.4h1.3v0.7h-1.3v2.7c0,0.3,0.1,0.5,0.2,0.7c0.1,0.2,0.3,0.2,0.6,0.2c0.1,0,0.2,0,0.3,0
				c0.1,0,0.2-0.1,0.3-0.1l0.2,0.6c-0.1,0-0.3,0.1-0.4,0.1S383.5,295.1,383.3,295.1z"/>
			<path style="fill:#1A171B;" d="M386.7,295.1c-0.3,0-0.7-0.1-1-0.2s-0.6-0.3-0.8-0.5l0.4-0.6c0.2,0.2,0.4,0.3,0.7,0.4
				c0.2,0.1,0.5,0.2,0.8,0.2c0.3,0,0.6-0.1,0.7-0.2c0.2-0.1,0.2-0.3,0.2-0.5c0-0.1,0-0.2-0.1-0.3s-0.2-0.2-0.3-0.2
				c-0.1-0.1-0.2-0.1-0.4-0.2s-0.3-0.1-0.4-0.2c-0.2-0.1-0.3-0.1-0.5-0.2c-0.2-0.1-0.3-0.2-0.5-0.3c-0.1-0.1-0.2-0.2-0.3-0.4
				c-0.1-0.1-0.1-0.3-0.1-0.5c0-0.2,0-0.4,0.1-0.5c0.1-0.2,0.2-0.3,0.3-0.4c0.1-0.1,0.3-0.2,0.5-0.3c0.2-0.1,0.4-0.1,0.7-0.1
				c0.3,0,0.6,0.1,0.8,0.2c0.3,0.1,0.5,0.2,0.7,0.4l-0.4,0.5c-0.2-0.1-0.3-0.2-0.5-0.3s-0.4-0.1-0.6-0.1c-0.3,0-0.5,0.1-0.7,0.2
				c-0.1,0.1-0.2,0.3-0.2,0.5c0,0.1,0,0.2,0.1,0.3c0.1,0.1,0.1,0.2,0.2,0.2c0.1,0.1,0.2,0.1,0.3,0.2c0.1,0.1,0.3,0.1,0.4,0.2
				c0.2,0.1,0.3,0.1,0.5,0.2c0.2,0.1,0.3,0.2,0.5,0.3s0.3,0.2,0.3,0.4c0.1,0.2,0.1,0.4,0.1,0.6c0,0.2,0,0.4-0.1,0.6
				c-0.1,0.2-0.2,0.3-0.3,0.5c-0.2,0.1-0.3,0.2-0.6,0.3C387.2,295.1,387,295.1,386.7,295.1z"/>
			<path style="fill:#1A171B;" d="M391.6,295.1c-0.3,0-0.6-0.1-0.9-0.2c-0.3-0.1-0.5-0.3-0.7-0.5c-0.2-0.2-0.4-0.5-0.5-0.8
				s-0.2-0.7-0.2-1.1c0-0.4,0.1-0.8,0.2-1.1c0.1-0.3,0.3-0.6,0.5-0.8c0.2-0.2,0.5-0.4,0.7-0.5c0.3-0.1,0.6-0.2,0.9-0.2
				c0.3,0,0.6,0.1,0.8,0.2c0.2,0.1,0.4,0.2,0.6,0.4l-0.4,0.5c-0.1-0.1-0.3-0.2-0.4-0.3c-0.2-0.1-0.3-0.1-0.5-0.1
				c-0.2,0-0.4,0-0.6,0.1c-0.2,0.1-0.3,0.2-0.5,0.4c-0.1,0.2-0.2,0.4-0.3,0.6c-0.1,0.2-0.1,0.5-0.1,0.8s0,0.5,0.1,0.8
				c0.1,0.2,0.2,0.4,0.3,0.6c0.1,0.2,0.3,0.3,0.5,0.4c0.2,0.1,0.4,0.1,0.6,0.1c0.2,0,0.4,0,0.6-0.1c0.2-0.1,0.4-0.2,0.5-0.3l0.4,0.6
				c-0.2,0.2-0.5,0.3-0.7,0.5C392.2,295.1,391.9,295.1,391.6,295.1z"/>
			<path style="fill:#1A171B;" d="M394.3,295v-7.1h0.8v1.9l0,1c0.2-0.2,0.5-0.4,0.7-0.6c0.3-0.2,0.6-0.2,0.9-0.2
				c0.5,0,0.9,0.2,1.1,0.5c0.2,0.3,0.4,0.8,0.4,1.4v3.1h-0.8v-3c0-0.5-0.1-0.8-0.2-1c-0.1-0.2-0.4-0.3-0.7-0.3
				c-0.3,0-0.5,0.1-0.7,0.2c-0.2,0.1-0.4,0.3-0.7,0.6v3.5H394.3z"/>
			<path style="fill:#1A171B;" d="M401.8,295.1c-0.3,0-0.6-0.1-0.9-0.2c-0.3-0.1-0.5-0.3-0.7-0.5s-0.4-0.5-0.5-0.8
				c-0.1-0.3-0.2-0.7-0.2-1.1s0.1-0.8,0.2-1.1c0.1-0.3,0.3-0.6,0.5-0.8s0.4-0.4,0.7-0.5c0.3-0.1,0.5-0.2,0.8-0.2
				c0.3,0,0.6,0.1,0.8,0.2c0.2,0.1,0.4,0.3,0.6,0.5c0.2,0.2,0.3,0.4,0.4,0.7c0.1,0.3,0.1,0.6,0.1,0.9c0,0.1,0,0.2,0,0.3
				c0,0.1,0,0.2,0,0.2h-3.3c0,0.5,0.2,0.9,0.5,1.2s0.7,0.5,1.1,0.5c0.2,0,0.5,0,0.6-0.1s0.4-0.2,0.6-0.3l0.3,0.5
				c-0.2,0.1-0.5,0.3-0.7,0.4C402.4,295.1,402.1,295.1,401.8,295.1z M400.3,292.2h2.6c0-0.5-0.1-0.9-0.3-1.1
				c-0.2-0.3-0.5-0.4-0.9-0.4c-0.2,0-0.3,0-0.5,0.1c-0.2,0.1-0.3,0.2-0.4,0.3c-0.1,0.1-0.2,0.3-0.3,0.5
				C400.3,291.7,400.3,291.9,400.3,292.2z"/>
			<path style="fill:#1A171B;" d="M404.8,295v-4.9h0.7l0.1,0.9h0c0.2-0.3,0.4-0.6,0.6-0.7c0.2-0.2,0.5-0.3,0.8-0.3
				c0.2,0,0.4,0,0.5,0.1l-0.2,0.7c-0.1,0-0.2,0-0.2-0.1c-0.1,0-0.2,0-0.3,0c-0.2,0-0.4,0.1-0.6,0.3c-0.2,0.2-0.4,0.5-0.6,0.9v3.1
				H404.8z"/>
			<path style="fill:#1A171B;" d="M409.6,295l2.2-6.6h0.9l2.2,6.6h-0.9l-0.6-2h-2.4l-0.6,2H409.6z M411.6,291.3l-0.3,1h2l-0.3-1
				c-0.1-0.4-0.2-0.7-0.3-1.1c-0.1-0.4-0.2-0.7-0.3-1.1h0c-0.1,0.4-0.2,0.8-0.3,1.1C411.9,290.6,411.8,290.9,411.6,291.3z"/>
			<path style="fill:#1A171B;" d="M416,295v-7.1h0.8v4.8h0l2.1-2.6h0.9l-1.6,2l1.9,2.9h-0.9l-1.4-2.3l-0.9,1.1v1.3H416z"/>
			<path style="fill:#1A171B;" d="M422.1,295.1c-0.4,0-0.7-0.1-1-0.4c-0.3-0.2-0.4-0.6-0.4-1c0-0.5,0.2-0.9,0.7-1.2
				c0.5-0.3,1.2-0.5,2.3-0.6c0-0.2,0-0.3,0-0.5c0-0.1-0.1-0.3-0.2-0.4c-0.1-0.1-0.2-0.2-0.3-0.3s-0.3-0.1-0.5-0.1
				c-0.3,0-0.5,0.1-0.8,0.2c-0.2,0.1-0.5,0.2-0.7,0.4l-0.3-0.6c0.2-0.1,0.5-0.3,0.8-0.4c0.3-0.1,0.7-0.2,1.1-0.2
				c0.6,0,1,0.2,1.3,0.5c0.3,0.4,0.4,0.9,0.4,1.5v3h-0.7l-0.1-0.6h0c-0.2,0.2-0.5,0.4-0.8,0.5S422.4,295.1,422.1,295.1z
				 M422.3,294.5c0.2,0,0.5-0.1,0.7-0.2c0.2-0.1,0.4-0.3,0.7-0.5v-1.4c-0.4,0.1-0.8,0.1-1,0.2c-0.3,0.1-0.5,0.2-0.7,0.3
				c-0.2,0.1-0.3,0.2-0.4,0.3c-0.1,0.1-0.1,0.3-0.1,0.4c0,0.3,0.1,0.5,0.3,0.6C421.9,294.4,422.1,294.5,422.3,294.5z"/>
			<path style="fill:#1A171B;" d="M427.8,295.1c-0.6,0-1.1-0.2-1.5-0.7s-0.5-1.1-0.5-1.9c0-0.4,0.1-0.8,0.2-1.1
				c0.1-0.3,0.3-0.6,0.5-0.8c0.2-0.2,0.4-0.4,0.7-0.5c0.3-0.1,0.5-0.2,0.8-0.2c0.3,0,0.5,0.1,0.7,0.2c0.2,0.1,0.4,0.2,0.6,0.4l0-0.8
				v-1.9h0.8v7.1h-0.7l-0.1-0.6h0c-0.2,0.2-0.4,0.4-0.7,0.5S428.1,295.1,427.8,295.1z M428,294.4c0.2,0,0.4-0.1,0.6-0.2
				s0.4-0.3,0.6-0.5v-2.5c-0.2-0.2-0.4-0.3-0.6-0.4c-0.2-0.1-0.4-0.1-0.6-0.1c-0.2,0-0.4,0-0.5,0.1c-0.2,0.1-0.3,0.2-0.4,0.4
				c-0.1,0.2-0.2,0.4-0.3,0.6s-0.1,0.5-0.1,0.8c0,0.6,0.1,1,0.4,1.4C427.2,294.3,427.5,294.4,428,294.4z"/>
			<path style="fill:#1A171B;" d="M433.7,295.1c-0.3,0-0.6-0.1-0.9-0.2c-0.3-0.1-0.5-0.3-0.7-0.5s-0.4-0.5-0.5-0.8
				c-0.1-0.3-0.2-0.7-0.2-1.1s0.1-0.8,0.2-1.1c0.1-0.3,0.3-0.6,0.5-0.8s0.4-0.4,0.7-0.5c0.3-0.1,0.5-0.2,0.8-0.2
				c0.3,0,0.6,0.1,0.8,0.2c0.2,0.1,0.4,0.3,0.6,0.5c0.2,0.2,0.3,0.4,0.4,0.7c0.1,0.3,0.1,0.6,0.1,0.9c0,0.1,0,0.2,0,0.3
				c0,0.1,0,0.2,0,0.2h-3.3c0,0.5,0.2,0.9,0.5,1.2s0.7,0.5,1.1,0.5c0.2,0,0.5,0,0.6-0.1s0.4-0.2,0.6-0.3l0.3,0.5
				c-0.2,0.1-0.5,0.3-0.7,0.4C434.4,295.1,434.1,295.1,433.7,295.1z M432.2,292.2h2.6c0-0.5-0.1-0.9-0.3-1.1
				c-0.2-0.3-0.5-0.4-0.9-0.4c-0.2,0-0.3,0-0.5,0.1c-0.2,0.1-0.3,0.2-0.4,0.3c-0.1,0.1-0.2,0.3-0.3,0.5
				C432.3,291.7,432.2,291.9,432.2,292.2z"/>
			<path style="fill:#1A171B;" d="M436.8,295v-4.9h0.7l0.1,0.7h0c0.2-0.2,0.4-0.4,0.7-0.6s0.5-0.2,0.8-0.2c0.4,0,0.7,0.1,0.9,0.2
				c0.2,0.2,0.4,0.4,0.5,0.7c0.3-0.3,0.5-0.5,0.8-0.7c0.3-0.2,0.5-0.3,0.8-0.3c0.5,0,0.9,0.2,1.1,0.5c0.2,0.3,0.4,0.8,0.4,1.4v3.1
				h-0.8v-3c0-0.5-0.1-0.8-0.2-1c-0.1-0.2-0.4-0.3-0.7-0.3c-0.4,0-0.8,0.3-1.2,0.8v3.5h-0.8v-3c0-0.5-0.1-0.8-0.2-1
				c-0.1-0.2-0.4-0.3-0.7-0.3c-0.4,0-0.8,0.3-1.2,0.8v3.5H436.8z"/>
			<path style="fill:#1A171B;" d="M445.6,289.1c-0.2,0-0.3-0.1-0.4-0.2c-0.1-0.1-0.2-0.2-0.2-0.4c0-0.2,0.1-0.3,0.2-0.4
				c0.1-0.1,0.2-0.1,0.4-0.1c0.2,0,0.3,0,0.4,0.1c0.1,0.1,0.2,0.2,0.2,0.4c0,0.2-0.1,0.3-0.2,0.4
				C445.9,289.1,445.7,289.1,445.6,289.1z M445.1,295v-4.9h0.8v4.9H445.1z"/>
			<path style="fill:#1A171B;" d="M448.9,295.1c-0.3,0-0.7-0.1-1-0.2s-0.6-0.3-0.8-0.5l0.4-0.6c0.2,0.2,0.4,0.3,0.7,0.4
				c0.2,0.1,0.5,0.2,0.8,0.2c0.3,0,0.6-0.1,0.7-0.2c0.2-0.1,0.2-0.3,0.2-0.5c0-0.1,0-0.2-0.1-0.3c-0.1-0.1-0.2-0.2-0.3-0.2
				c-0.1-0.1-0.2-0.1-0.4-0.2s-0.3-0.1-0.4-0.2c-0.2-0.1-0.3-0.1-0.5-0.2c-0.2-0.1-0.3-0.2-0.5-0.3c-0.1-0.1-0.2-0.2-0.3-0.4
				c-0.1-0.1-0.1-0.3-0.1-0.5c0-0.2,0-0.4,0.1-0.5c0.1-0.2,0.2-0.3,0.3-0.4c0.1-0.1,0.3-0.2,0.5-0.3c0.2-0.1,0.4-0.1,0.7-0.1
				c0.3,0,0.6,0.1,0.8,0.2c0.3,0.1,0.5,0.2,0.7,0.4l-0.4,0.5c-0.2-0.1-0.3-0.2-0.5-0.3s-0.4-0.1-0.6-0.1c-0.3,0-0.5,0.1-0.7,0.2
				c-0.1,0.1-0.2,0.3-0.2,0.5c0,0.1,0,0.2,0.1,0.3c0.1,0.1,0.1,0.2,0.2,0.2c0.1,0.1,0.2,0.1,0.3,0.2c0.1,0.1,0.3,0.1,0.4,0.2
				c0.2,0.1,0.3,0.1,0.5,0.2c0.2,0.1,0.3,0.2,0.5,0.3s0.3,0.2,0.3,0.4c0.1,0.2,0.1,0.4,0.1,0.6c0,0.2,0,0.4-0.1,0.6
				s-0.2,0.3-0.3,0.5s-0.3,0.2-0.6,0.3C449.5,295.1,449.2,295.1,448.9,295.1z"/>
			<path style="fill:#1A171B;" d="M453.8,295.1c-0.3,0-0.6-0.1-0.9-0.2c-0.3-0.1-0.5-0.3-0.7-0.5c-0.2-0.2-0.4-0.5-0.5-0.8
				c-0.1-0.3-0.2-0.7-0.2-1.1c0-0.4,0.1-0.8,0.2-1.1c0.1-0.3,0.3-0.6,0.5-0.8s0.5-0.4,0.7-0.5c0.3-0.1,0.6-0.2,0.9-0.2
				c0.3,0,0.6,0.1,0.8,0.2c0.2,0.1,0.4,0.2,0.6,0.4l-0.4,0.5c-0.1-0.1-0.3-0.2-0.4-0.3c-0.2-0.1-0.3-0.1-0.5-0.1
				c-0.2,0-0.4,0-0.6,0.1c-0.2,0.1-0.3,0.2-0.5,0.4c-0.1,0.2-0.2,0.4-0.3,0.6c-0.1,0.2-0.1,0.5-0.1,0.8s0,0.5,0.1,0.8
				c0.1,0.2,0.2,0.4,0.3,0.6c0.1,0.2,0.3,0.3,0.5,0.4c0.2,0.1,0.4,0.1,0.6,0.1c0.2,0,0.4,0,0.6-0.1c0.2-0.1,0.4-0.2,0.5-0.3l0.4,0.6
				c-0.2,0.2-0.5,0.3-0.7,0.5S454.1,295.1,453.8,295.1z"/>
			<path style="fill:#1A171B;" d="M456.5,295v-7.1h0.8v1.9l0,1c0.2-0.2,0.5-0.4,0.7-0.6c0.3-0.2,0.6-0.2,0.9-0.2
				c0.5,0,0.9,0.2,1.1,0.5c0.2,0.3,0.4,0.8,0.4,1.4v3.1h-0.8v-3c0-0.5-0.1-0.8-0.2-1c-0.1-0.2-0.4-0.3-0.7-0.3
				c-0.3,0-0.5,0.1-0.7,0.2c-0.2,0.1-0.4,0.3-0.7,0.6v3.5H456.5z"/>
			<path style="fill:#1A171B;" d="M464,295.1c-0.3,0-0.6-0.1-0.9-0.2s-0.5-0.3-0.7-0.5c-0.2-0.2-0.4-0.5-0.5-0.8
				c-0.1-0.3-0.2-0.7-0.2-1.1s0.1-0.8,0.2-1.1c0.1-0.3,0.3-0.6,0.5-0.8s0.4-0.4,0.7-0.5s0.5-0.2,0.8-0.2c0.3,0,0.6,0.1,0.8,0.2
				c0.2,0.1,0.4,0.3,0.6,0.5c0.2,0.2,0.3,0.4,0.4,0.7c0.1,0.3,0.1,0.6,0.1,0.9c0,0.1,0,0.2,0,0.3c0,0.1,0,0.2,0,0.2h-3.3
				c0,0.5,0.2,0.9,0.5,1.2s0.7,0.5,1.1,0.5c0.2,0,0.5,0,0.6-0.1s0.4-0.2,0.6-0.3l0.3,0.5c-0.2,0.1-0.5,0.3-0.7,0.4
				C464.7,295.1,464.4,295.1,464,295.1z M462.5,292.2h2.6c0-0.5-0.1-0.9-0.3-1.1s-0.5-0.4-0.9-0.4c-0.2,0-0.3,0-0.5,0.1
				c-0.2,0.1-0.3,0.2-0.4,0.3c-0.1,0.1-0.2,0.3-0.3,0.5C462.6,291.7,462.5,291.9,462.5,292.2z"/>
			<path style="fill:#1A171B;" d="M467.1,295v-4.9h0.7l0.1,0.9h0c0.2-0.3,0.4-0.6,0.6-0.7s0.5-0.3,0.8-0.3c0.2,0,0.4,0,0.5,0.1
				l-0.2,0.7c-0.1,0-0.2,0-0.2-0.1c-0.1,0-0.2,0-0.2,0c-0.2,0-0.4,0.1-0.6,0.3c-0.2,0.2-0.4,0.5-0.6,0.9v3.1H467.1z"/>
			<path style="fill:#1A171B;" d="M471.9,295l2.2-6.6h0.9l2.2,6.6h-0.9l-0.6-2h-2.4l-0.6,2H471.9z M473.9,291.3l-0.3,1h2l-0.3-1
				c-0.1-0.4-0.2-0.7-0.3-1.1c-0.1-0.4-0.2-0.7-0.3-1.1h0c-0.1,0.4-0.2,0.8-0.3,1.1C474.1,290.6,474,290.9,473.9,291.3z"/>
			<path style="fill:#1A171B;" d="M479.5,295.1c-0.5,0-0.9-0.2-1.1-0.5c-0.2-0.3-0.4-0.8-0.4-1.4v-3.1h0.8v3c0,0.5,0.1,0.8,0.2,1
				c0.1,0.2,0.4,0.3,0.7,0.3c0.3,0,0.5-0.1,0.7-0.2c0.2-0.1,0.4-0.3,0.6-0.6v-3.5h0.8v4.9h-0.7l-0.1-0.8h0c-0.2,0.3-0.5,0.5-0.7,0.6
				C480.2,295,479.9,295.1,479.5,295.1z"/>
			<path style="fill:#1A171B;" d="M484.9,295.1c-0.3,0-0.7-0.1-1-0.2s-0.6-0.3-0.8-0.5l0.4-0.6c0.2,0.2,0.4,0.3,0.7,0.4
				c0.2,0.1,0.5,0.2,0.8,0.2c0.3,0,0.6-0.1,0.7-0.2c0.2-0.1,0.2-0.3,0.2-0.5c0-0.1,0-0.2-0.1-0.3c-0.1-0.1-0.2-0.2-0.3-0.2
				c-0.1-0.1-0.2-0.1-0.4-0.2s-0.3-0.1-0.4-0.2c-0.2-0.1-0.3-0.1-0.5-0.2c-0.2-0.1-0.3-0.2-0.5-0.3c-0.1-0.1-0.2-0.2-0.3-0.4
				c-0.1-0.1-0.1-0.3-0.1-0.5c0-0.2,0-0.4,0.1-0.5c0.1-0.2,0.2-0.3,0.3-0.4c0.1-0.1,0.3-0.2,0.5-0.3c0.2-0.1,0.4-0.1,0.7-0.1
				c0.3,0,0.6,0.1,0.8,0.2c0.3,0.1,0.5,0.2,0.7,0.4l-0.4,0.5c-0.2-0.1-0.3-0.2-0.5-0.3s-0.4-0.1-0.6-0.1c-0.3,0-0.5,0.1-0.7,0.2
				c-0.1,0.1-0.2,0.3-0.2,0.5c0,0.1,0,0.2,0.1,0.3c0.1,0.1,0.1,0.2,0.2,0.2c0.1,0.1,0.2,0.1,0.3,0.2c0.1,0.1,0.3,0.1,0.4,0.2
				c0.2,0.1,0.3,0.1,0.5,0.2c0.2,0.1,0.3,0.2,0.5,0.3s0.3,0.2,0.3,0.4c0.1,0.2,0.1,0.4,0.1,0.6c0,0.2,0,0.4-0.1,0.6
				s-0.2,0.3-0.3,0.5s-0.3,0.2-0.6,0.3C485.4,295.1,485.1,295.1,484.9,295.1z"/>
			<path style="fill:#1A171B;" d="M489.4,295.1c-0.3,0-0.5,0-0.7-0.1c-0.2-0.1-0.3-0.2-0.4-0.3s-0.2-0.3-0.2-0.5
				c0-0.2-0.1-0.4-0.1-0.7v-2.7h-0.7v-0.6l0.8,0l0.1-1.4h0.7v1.4h1.3v0.7h-1.3v2.7c0,0.3,0.1,0.5,0.2,0.7s0.3,0.2,0.6,0.2
				c0.1,0,0.2,0,0.3,0s0.2-0.1,0.3-0.1l0.2,0.6c-0.1,0-0.3,0.1-0.4,0.1S489.6,295.1,489.4,295.1z"/>
			<path style="fill:#1A171B;" d="M492.5,295.1c-0.4,0-0.7-0.1-1-0.4c-0.3-0.2-0.4-0.6-0.4-1c0-0.5,0.2-0.9,0.7-1.2
				c0.5-0.3,1.2-0.5,2.3-0.6c0-0.2,0-0.3,0-0.5c0-0.1-0.1-0.3-0.2-0.4c-0.1-0.1-0.2-0.2-0.3-0.3s-0.3-0.1-0.5-0.1
				c-0.3,0-0.5,0.1-0.8,0.2c-0.2,0.1-0.5,0.2-0.7,0.4l-0.3-0.6c0.2-0.1,0.5-0.3,0.8-0.4s0.7-0.2,1.1-0.2c0.6,0,1,0.2,1.3,0.5
				c0.3,0.4,0.4,0.9,0.4,1.5v3h-0.7l-0.1-0.6h0c-0.2,0.2-0.5,0.4-0.8,0.5S492.8,295.1,492.5,295.1z M492.7,294.5
				c0.2,0,0.5-0.1,0.7-0.2c0.2-0.1,0.4-0.3,0.7-0.5v-1.4c-0.4,0.1-0.8,0.1-1,0.2c-0.3,0.1-0.5,0.2-0.7,0.3c-0.2,0.1-0.3,0.2-0.4,0.3
				c-0.1,0.1-0.1,0.3-0.1,0.4c0,0.3,0.1,0.5,0.3,0.6C492.3,294.4,492.5,294.5,492.7,294.5z"/>
			<path style="fill:#1A171B;" d="M497.8,295.1c-0.5,0-0.9-0.2-1.1-0.5c-0.2-0.3-0.4-0.8-0.4-1.4v-3.1h0.8v3c0,0.5,0.1,0.8,0.2,1
				c0.1,0.2,0.4,0.3,0.7,0.3c0.3,0,0.5-0.1,0.7-0.2c0.2-0.1,0.4-0.3,0.6-0.6v-3.5h0.8v4.9h-0.7l-0.1-0.8h0c-0.2,0.3-0.5,0.5-0.7,0.6
				C498.5,295,498.2,295.1,497.8,295.1z"/>
			<path style="fill:#1A171B;" d="M503.2,295.1c-0.3,0-0.7-0.1-1-0.2s-0.6-0.3-0.8-0.5l0.4-0.6c0.2,0.2,0.4,0.3,0.7,0.4
				c0.2,0.1,0.5,0.2,0.8,0.2c0.3,0,0.6-0.1,0.7-0.2c0.2-0.1,0.2-0.3,0.2-0.5c0-0.1,0-0.2-0.1-0.3c-0.1-0.1-0.2-0.2-0.3-0.2
				c-0.1-0.1-0.2-0.1-0.4-0.2s-0.3-0.1-0.4-0.2c-0.2-0.1-0.3-0.1-0.5-0.2c-0.2-0.1-0.3-0.2-0.5-0.3c-0.1-0.1-0.2-0.2-0.3-0.4
				c-0.1-0.1-0.1-0.3-0.1-0.5c0-0.2,0-0.4,0.1-0.5c0.1-0.2,0.2-0.3,0.3-0.4c0.1-0.1,0.3-0.2,0.5-0.3c0.2-0.1,0.4-0.1,0.7-0.1
				c0.3,0,0.6,0.1,0.8,0.2c0.3,0.1,0.5,0.2,0.7,0.4l-0.4,0.5c-0.2-0.1-0.3-0.2-0.5-0.3s-0.4-0.1-0.6-0.1c-0.3,0-0.5,0.1-0.7,0.2
				c-0.1,0.1-0.2,0.3-0.2,0.5c0,0.1,0,0.2,0.1,0.3c0.1,0.1,0.1,0.2,0.2,0.2c0.1,0.1,0.2,0.1,0.3,0.2c0.1,0.1,0.3,0.1,0.4,0.2
				c0.2,0.1,0.3,0.1,0.5,0.2c0.2,0.1,0.3,0.2,0.5,0.3s0.3,0.2,0.3,0.4c0.1,0.2,0.1,0.4,0.1,0.6c0,0.2,0,0.4-0.1,0.6
				s-0.2,0.3-0.3,0.5s-0.3,0.2-0.6,0.3C503.8,295.1,503.5,295.1,503.2,295.1z"/>
			<path style="fill:#1A171B;" d="M508.2,295.1c-0.3,0-0.6-0.1-0.9-0.2c-0.3-0.1-0.5-0.3-0.7-0.5c-0.2-0.2-0.4-0.5-0.5-0.8
				c-0.1-0.3-0.2-0.7-0.2-1.1c0-0.4,0.1-0.8,0.2-1.1c0.1-0.3,0.3-0.6,0.5-0.8s0.5-0.4,0.7-0.5c0.3-0.1,0.6-0.2,0.9-0.2
				c0.3,0,0.6,0.1,0.8,0.2c0.2,0.1,0.4,0.2,0.6,0.4l-0.4,0.5c-0.1-0.1-0.3-0.2-0.4-0.3c-0.2-0.1-0.3-0.1-0.5-0.1
				c-0.2,0-0.4,0-0.6,0.1c-0.2,0.1-0.3,0.2-0.5,0.4c-0.1,0.2-0.2,0.4-0.3,0.6c-0.1,0.2-0.1,0.5-0.1,0.8s0,0.5,0.1,0.8
				c0.1,0.2,0.2,0.4,0.3,0.6c0.1,0.2,0.3,0.3,0.5,0.4c0.2,0.1,0.4,0.1,0.6,0.1c0.2,0,0.4,0,0.6-0.1c0.2-0.1,0.4-0.2,0.5-0.3l0.4,0.6
				c-0.2,0.2-0.5,0.3-0.7,0.5S508.5,295.1,508.2,295.1z"/>
			<path style="fill:#1A171B;" d="M510.9,295v-7.1h0.8v1.9l0,1c0.2-0.2,0.5-0.4,0.7-0.6c0.3-0.2,0.6-0.2,0.9-0.2
				c0.5,0,0.9,0.2,1.1,0.5c0.2,0.3,0.4,0.8,0.4,1.4v3.1h-0.8v-3c0-0.5-0.1-0.8-0.2-1c-0.1-0.2-0.4-0.3-0.7-0.3
				c-0.3,0-0.5,0.1-0.7,0.2c-0.2,0.1-0.4,0.3-0.7,0.6v3.5H510.9z"/>
			<path style="fill:#1A171B;" d="M518,295.1c-0.6,0-1.1-0.2-1.5-0.7s-0.5-1.1-0.5-1.9c0-0.4,0.1-0.8,0.2-1.1
				c0.1-0.3,0.3-0.6,0.5-0.8c0.2-0.2,0.4-0.4,0.7-0.5c0.3-0.1,0.5-0.2,0.8-0.2c0.3,0,0.5,0.1,0.7,0.2c0.2,0.1,0.4,0.2,0.6,0.4l0-0.8
				v-1.9h0.8v7.1h-0.7l-0.1-0.6h0c-0.2,0.2-0.4,0.4-0.7,0.5S518.3,295.1,518,295.1z M518.2,294.4c0.2,0,0.4-0.1,0.6-0.2
				c0.2-0.1,0.4-0.3,0.6-0.5v-2.5c-0.2-0.2-0.4-0.3-0.6-0.4c-0.2-0.1-0.4-0.1-0.6-0.1c-0.2,0-0.4,0-0.5,0.1
				c-0.2,0.1-0.3,0.2-0.4,0.4s-0.2,0.4-0.3,0.6c-0.1,0.2-0.1,0.5-0.1,0.8c0,0.6,0.1,1,0.4,1.4S517.7,294.4,518.2,294.4z"/>
			<path style="fill:#1A171B;" d="M522.4,289.1c-0.2,0-0.3-0.1-0.4-0.2c-0.1-0.1-0.2-0.2-0.2-0.4c0-0.2,0.1-0.3,0.2-0.4
				c0.1-0.1,0.2-0.1,0.4-0.1c0.2,0,0.3,0,0.4,0.1c0.1,0.1,0.2,0.2,0.2,0.4c0,0.2-0.1,0.3-0.2,0.4
				C522.7,289.1,522.5,289.1,522.4,289.1z M521.9,295v-4.9h0.8v4.9H521.9z"/>
			<path style="fill:#1A171B;" d="M526.4,295.1c-0.3,0-0.6-0.1-0.9-0.2s-0.5-0.3-0.7-0.5c-0.2-0.2-0.4-0.5-0.5-0.8
				c-0.1-0.3-0.2-0.7-0.2-1.1s0.1-0.8,0.2-1.1c0.1-0.3,0.3-0.6,0.5-0.8s0.4-0.4,0.7-0.5s0.5-0.2,0.8-0.2c0.3,0,0.6,0.1,0.8,0.2
				c0.2,0.1,0.4,0.3,0.6,0.5c0.2,0.2,0.3,0.4,0.4,0.7c0.1,0.3,0.1,0.6,0.1,0.9c0,0.1,0,0.2,0,0.3c0,0.1,0,0.2,0,0.2h-3.3
				c0,0.5,0.2,0.9,0.5,1.2s0.7,0.5,1.1,0.5c0.2,0,0.5,0,0.6-0.1s0.4-0.2,0.6-0.3l0.3,0.5c-0.2,0.1-0.5,0.3-0.7,0.4
				C527.1,295.1,526.8,295.1,526.4,295.1z M524.9,292.2h2.6c0-0.5-0.1-0.9-0.3-1.1s-0.5-0.4-0.9-0.4c-0.2,0-0.3,0-0.5,0.1
				c-0.2,0.1-0.3,0.2-0.4,0.3c-0.1,0.1-0.2,0.3-0.3,0.5C525,291.7,524.9,291.9,524.9,292.2z"/>
			<path style="fill:#1A171B;" d="M529.5,295v-4.9h0.7l0.1,0.7h0c0.2-0.2,0.5-0.4,0.7-0.6c0.3-0.2,0.6-0.2,0.9-0.2
				c0.5,0,0.9,0.2,1.1,0.5c0.2,0.3,0.4,0.8,0.4,1.4v3.1h-0.8v-3c0-0.5-0.1-0.8-0.2-1c-0.1-0.2-0.4-0.3-0.7-0.3
				c-0.3,0-0.5,0.1-0.7,0.2c-0.2,0.1-0.4,0.3-0.7,0.6v3.5H529.5z"/>
			<path style="fill:#1A171B;" d="M536.2,295.1c-0.3,0-0.7-0.1-1-0.2s-0.6-0.3-0.8-0.5l0.4-0.6c0.2,0.2,0.4,0.3,0.7,0.4
				c0.2,0.1,0.5,0.2,0.8,0.2c0.3,0,0.6-0.1,0.7-0.2c0.2-0.1,0.2-0.3,0.2-0.5c0-0.1,0-0.2-0.1-0.3c-0.1-0.1-0.2-0.2-0.3-0.2
				c-0.1-0.1-0.2-0.1-0.4-0.2s-0.3-0.1-0.4-0.2c-0.2-0.1-0.3-0.1-0.5-0.2c-0.2-0.1-0.3-0.2-0.5-0.3c-0.1-0.1-0.2-0.2-0.3-0.4
				c-0.1-0.1-0.1-0.3-0.1-0.5c0-0.2,0-0.4,0.1-0.5c0.1-0.2,0.2-0.3,0.3-0.4c0.1-0.1,0.3-0.2,0.5-0.3c0.2-0.1,0.4-0.1,0.7-0.1
				c0.3,0,0.6,0.1,0.8,0.2c0.3,0.1,0.5,0.2,0.7,0.4l-0.4,0.5c-0.2-0.1-0.3-0.2-0.5-0.3s-0.4-0.1-0.6-0.1c-0.3,0-0.5,0.1-0.7,0.2
				c-0.1,0.1-0.2,0.3-0.2,0.5c0,0.1,0,0.2,0.1,0.3c0.1,0.1,0.1,0.2,0.2,0.2c0.1,0.1,0.2,0.1,0.3,0.2c0.1,0.1,0.3,0.1,0.4,0.2
				c0.2,0.1,0.3,0.1,0.5,0.2c0.2,0.1,0.3,0.2,0.5,0.3s0.3,0.2,0.3,0.4c0.1,0.2,0.1,0.4,0.1,0.6c0,0.2,0,0.4-0.1,0.6
				s-0.2,0.3-0.3,0.5s-0.3,0.2-0.6,0.3C536.8,295.1,536.5,295.1,536.2,295.1z"/>
			<path style="fill:#1A171B;" d="M540.8,295.1c-0.3,0-0.5,0-0.7-0.1c-0.2-0.1-0.3-0.2-0.4-0.3s-0.2-0.3-0.2-0.5
				c0-0.2-0.1-0.4-0.1-0.7v-2.7h-0.7v-0.6l0.8,0l0.1-1.4h0.7v1.4h1.3v0.7h-1.3v2.7c0,0.3,0.1,0.5,0.2,0.7s0.3,0.2,0.6,0.2
				c0.1,0,0.2,0,0.3,0s0.2-0.1,0.3-0.1l0.2,0.6c-0.1,0-0.3,0.1-0.4,0.1S540.9,295.1,540.8,295.1z"/>
			<path style="fill:#1A171B;" d="M367.6,307.1c-0.4,0-0.8-0.1-1.2-0.2c-0.4-0.2-0.7-0.4-0.9-0.7c-0.3-0.3-0.5-0.6-0.6-1.1
				c-0.1-0.4-0.2-0.9-0.2-1.4c0-0.5,0.1-1,0.2-1.4c0.2-0.4,0.4-0.8,0.6-1.1c0.3-0.3,0.6-0.5,1-0.7c0.4-0.2,0.8-0.2,1.2-0.2
				c0.2,0,0.4,0,0.6,0.1c0.2,0,0.4,0.1,0.5,0.2c0.2,0.1,0.3,0.2,0.4,0.3c0.1,0.1,0.2,0.2,0.3,0.3l-0.5,0.5c-0.2-0.2-0.4-0.3-0.6-0.4
				c-0.2-0.1-0.5-0.2-0.8-0.2c-0.3,0-0.6,0.1-0.9,0.2s-0.5,0.3-0.7,0.5c-0.2,0.2-0.3,0.5-0.4,0.8s-0.2,0.7-0.2,1.1
				c0,0.4,0,0.8,0.1,1.1c0.1,0.3,0.2,0.6,0.4,0.8s0.4,0.4,0.7,0.5c0.3,0.1,0.6,0.2,0.9,0.2c0.2,0,0.5,0,0.7-0.1
				c0.2-0.1,0.4-0.2,0.5-0.3v-1.7h-1.4v-0.7h2.2v2.8c-0.2,0.2-0.5,0.4-0.8,0.5C368.5,307,368.1,307.1,367.6,307.1z"/>
			<path style="fill:#1A171B;" d="M373.2,307.1c-0.3,0-0.6-0.1-0.9-0.2c-0.3-0.1-0.5-0.3-0.7-0.5c-0.2-0.2-0.4-0.5-0.5-0.8
				c-0.1-0.3-0.2-0.7-0.2-1.1s0.1-0.8,0.2-1.1c0.1-0.3,0.3-0.6,0.5-0.8c0.2-0.2,0.4-0.4,0.7-0.5c0.3-0.1,0.5-0.2,0.8-0.2
				c0.3,0,0.6,0.1,0.8,0.2c0.2,0.1,0.4,0.3,0.6,0.5c0.2,0.2,0.3,0.4,0.4,0.7s0.1,0.6,0.1,0.9c0,0.1,0,0.2,0,0.3c0,0.1,0,0.2,0,0.2
				h-3.3c0,0.5,0.2,0.9,0.5,1.2s0.7,0.5,1.1,0.5c0.2,0,0.5,0,0.6-0.1s0.4-0.2,0.6-0.3l0.3,0.5c-0.2,0.1-0.5,0.3-0.7,0.4
				S373.5,307.1,373.2,307.1z M371.7,304.1h2.6c0-0.5-0.1-0.9-0.3-1.1c-0.2-0.3-0.5-0.4-0.9-0.4c-0.2,0-0.3,0-0.5,0.1
				c-0.2,0.1-0.3,0.2-0.4,0.3c-0.1,0.1-0.2,0.3-0.3,0.5S371.7,303.9,371.7,304.1z"/>
			<path style="fill:#1A171B;" d="M376.2,307v-4.9h0.7l0.1,0.9h0c0.2-0.3,0.4-0.6,0.6-0.7c0.2-0.2,0.5-0.3,0.8-0.3
				c0.2,0,0.4,0,0.5,0.1l-0.2,0.7c-0.1,0-0.2,0-0.2-0.1s-0.2,0-0.3,0c-0.2,0-0.4,0.1-0.6,0.3s-0.4,0.5-0.6,0.9v3.1H376.2z"/>
			<path style="fill:#1A171B;" d="M379.8,307v-4.9h0.7l0.1,0.7h0c0.2-0.2,0.4-0.4,0.7-0.6s0.5-0.2,0.8-0.2c0.4,0,0.7,0.1,0.9,0.2
				c0.2,0.2,0.4,0.4,0.5,0.7c0.3-0.3,0.5-0.5,0.8-0.7c0.3-0.2,0.5-0.3,0.8-0.3c0.5,0,0.9,0.2,1.1,0.5s0.4,0.8,0.4,1.4v3.1h-0.8v-3
				c0-0.5-0.1-0.8-0.2-1c-0.1-0.2-0.4-0.3-0.7-0.3c-0.4,0-0.8,0.3-1.2,0.8v3.5h-0.8v-3c0-0.5-0.1-0.8-0.2-1
				c-0.1-0.2-0.4-0.3-0.7-0.3c-0.4,0-0.8,0.3-1.2,0.8v3.5H379.8z"/>
			<path style="fill:#1A171B;" d="M389.3,307.1c-0.4,0-0.7-0.1-1-0.4s-0.4-0.6-0.4-1c0-0.5,0.2-0.9,0.7-1.2s1.2-0.5,2.3-0.6
				c0-0.2,0-0.3,0-0.5c0-0.1-0.1-0.3-0.2-0.4c-0.1-0.1-0.2-0.2-0.3-0.3c-0.1-0.1-0.3-0.1-0.5-0.1c-0.3,0-0.5,0.1-0.8,0.2
				s-0.5,0.2-0.7,0.4l-0.3-0.6c0.2-0.1,0.5-0.3,0.8-0.4c0.3-0.1,0.7-0.2,1.1-0.2c0.6,0,1,0.2,1.3,0.5c0.3,0.4,0.4,0.9,0.4,1.5v3H391
				l-0.1-0.6h0c-0.2,0.2-0.5,0.4-0.8,0.5C389.9,307,389.6,307.1,389.3,307.1z M389.6,306.4c0.2,0,0.5-0.1,0.7-0.2
				c0.2-0.1,0.4-0.3,0.7-0.5v-1.4c-0.4,0.1-0.8,0.1-1,0.2c-0.3,0.1-0.5,0.2-0.7,0.3c-0.2,0.1-0.3,0.2-0.4,0.3
				c-0.1,0.1-0.1,0.3-0.1,0.4c0,0.3,0.1,0.5,0.3,0.6C389.1,306.4,389.3,306.4,389.6,306.4z"/>
			<path style="fill:#1A171B;" d="M393.3,307v-4.9h0.7l0.1,0.7h0c0.2-0.2,0.5-0.4,0.7-0.6c0.3-0.2,0.6-0.2,0.9-0.2
				c0.5,0,0.9,0.2,1.1,0.5c0.2,0.3,0.4,0.8,0.4,1.4v3.1h-0.8v-3c0-0.5-0.1-0.8-0.2-1c-0.1-0.2-0.4-0.3-0.7-0.3
				c-0.3,0-0.5,0.1-0.7,0.2c-0.2,0.1-0.4,0.3-0.7,0.6v3.5H393.3z"/>
			<path style="fill:#1A171B;" d="M400.1,307l2.2-6.6h0.9l2.2,6.6h-0.9l-0.6-2h-2.4l-0.6,2H400.1z M402.1,303.3l-0.3,1h2l-0.3-1
				c-0.1-0.4-0.2-0.7-0.3-1.1c-0.1-0.4-0.2-0.7-0.3-1.1h0c-0.1,0.4-0.2,0.8-0.3,1.1C402.3,302.5,402.2,302.9,402.1,303.3z"/>
			<path style="fill:#1A171B;" d="M408.3,307.1c-0.3,0-0.6-0.1-0.9-0.2c-0.3-0.1-0.5-0.3-0.7-0.5c-0.2-0.2-0.4-0.5-0.5-0.8
				c-0.1-0.3-0.2-0.7-0.2-1.1c0-0.4,0.1-0.8,0.2-1.1c0.1-0.3,0.3-0.6,0.5-0.8c0.2-0.2,0.5-0.4,0.7-0.5c0.3-0.1,0.6-0.2,0.9-0.2
				c0.3,0,0.6,0.1,0.8,0.2c0.2,0.1,0.4,0.2,0.6,0.4l-0.4,0.5c-0.1-0.1-0.3-0.2-0.4-0.3s-0.3-0.1-0.5-0.1c-0.2,0-0.4,0-0.6,0.1
				c-0.2,0.1-0.3,0.2-0.5,0.4s-0.2,0.4-0.3,0.6c-0.1,0.2-0.1,0.5-0.1,0.8c0,0.3,0,0.5,0.1,0.8c0.1,0.2,0.2,0.4,0.3,0.6
				c0.1,0.2,0.3,0.3,0.5,0.4c0.2,0.1,0.4,0.1,0.6,0.1c0.2,0,0.4,0,0.6-0.1c0.2-0.1,0.4-0.2,0.5-0.3l0.4,0.6
				c-0.2,0.2-0.5,0.3-0.7,0.5C408.9,307,408.6,307.1,408.3,307.1z"/>
			<path style="fill:#1A171B;" d="M412.2,307.1c-0.4,0-0.7-0.1-1-0.4s-0.4-0.6-0.4-1c0-0.5,0.2-0.9,0.7-1.2s1.2-0.5,2.3-0.6
				c0-0.2,0-0.3,0-0.5c0-0.1-0.1-0.3-0.2-0.4c-0.1-0.1-0.2-0.2-0.3-0.3c-0.1-0.1-0.3-0.1-0.5-0.1c-0.3,0-0.5,0.1-0.8,0.2
				s-0.5,0.2-0.7,0.4l-0.3-0.6c0.2-0.1,0.5-0.3,0.8-0.4c0.3-0.1,0.7-0.2,1.1-0.2c0.6,0,1,0.2,1.3,0.5c0.3,0.4,0.4,0.9,0.4,1.5v3
				h-0.7l-0.1-0.6h0c-0.2,0.2-0.5,0.4-0.8,0.5C412.8,307,412.5,307.1,412.2,307.1z M412.4,306.4c0.2,0,0.5-0.1,0.7-0.2
				c0.2-0.1,0.4-0.3,0.7-0.5v-1.4c-0.4,0.1-0.8,0.1-1,0.2c-0.3,0.1-0.5,0.2-0.7,0.3c-0.2,0.1-0.3,0.2-0.4,0.3
				c-0.1,0.1-0.1,0.3-0.1,0.4c0,0.3,0.1,0.5,0.3,0.6C412,306.4,412.2,306.4,412.4,306.4z"/>
			<path style="fill:#1A171B;" d="M417.8,307.1c-0.6,0-1.1-0.2-1.5-0.7s-0.5-1.1-0.5-1.9c0-0.4,0.1-0.8,0.2-1.1
				c0.1-0.3,0.3-0.6,0.5-0.8c0.2-0.2,0.4-0.4,0.7-0.5c0.3-0.1,0.5-0.2,0.8-0.2c0.3,0,0.5,0,0.7,0.2c0.2,0.1,0.4,0.2,0.6,0.4l0-0.8
				v-1.9h0.8v7.1h-0.7l-0.1-0.6h0c-0.2,0.2-0.4,0.3-0.7,0.5C418.4,307,418.1,307.1,417.8,307.1z M418,306.4c0.2,0,0.4-0.1,0.6-0.2
				s0.4-0.3,0.6-0.5v-2.5c-0.2-0.2-0.4-0.3-0.6-0.4c-0.2-0.1-0.4-0.1-0.6-0.1c-0.2,0-0.4,0-0.5,0.1c-0.2,0.1-0.3,0.2-0.4,0.4
				c-0.1,0.2-0.2,0.4-0.3,0.6s-0.1,0.5-0.1,0.8c0,0.6,0.1,1,0.4,1.4C417.2,306.2,417.6,306.4,418,306.4z"/>
			<path style="fill:#1A171B;" d="M423.7,307.1c-0.3,0-0.6-0.1-0.9-0.2c-0.3-0.1-0.5-0.3-0.7-0.5c-0.2-0.2-0.4-0.5-0.5-0.8
				c-0.1-0.3-0.2-0.7-0.2-1.1s0.1-0.8,0.2-1.1c0.1-0.3,0.3-0.6,0.5-0.8c0.2-0.2,0.4-0.4,0.7-0.5c0.3-0.1,0.5-0.2,0.8-0.2
				c0.3,0,0.6,0.1,0.8,0.2c0.2,0.1,0.4,0.3,0.6,0.5c0.2,0.2,0.3,0.4,0.4,0.7s0.1,0.6,0.1,0.9c0,0.1,0,0.2,0,0.3c0,0.1,0,0.2,0,0.2
				h-3.3c0,0.5,0.2,0.9,0.5,1.2s0.7,0.5,1.1,0.5c0.2,0,0.5,0,0.6-0.1s0.4-0.2,0.6-0.3l0.3,0.5c-0.2,0.1-0.5,0.3-0.7,0.4
				S424.1,307.1,423.7,307.1z M422.2,304.1h2.6c0-0.5-0.1-0.9-0.3-1.1c-0.2-0.3-0.5-0.4-0.9-0.4c-0.2,0-0.3,0-0.5,0.1
				c-0.2,0.1-0.3,0.2-0.4,0.3c-0.1,0.1-0.2,0.3-0.3,0.5S422.2,303.9,422.2,304.1z"/>
			<path style="fill:#1A171B;" d="M426.8,307v-4.9h0.7l0.1,0.7h0c0.2-0.2,0.4-0.4,0.7-0.6s0.5-0.2,0.8-0.2c0.4,0,0.7,0.1,0.9,0.2
				c0.2,0.2,0.4,0.4,0.5,0.7c0.3-0.3,0.5-0.5,0.8-0.7c0.3-0.2,0.5-0.3,0.8-0.3c0.5,0,0.9,0.2,1.1,0.5s0.4,0.8,0.4,1.4v3.1h-0.8v-3
				c0-0.5-0.1-0.8-0.2-1c-0.1-0.2-0.4-0.3-0.7-0.3c-0.4,0-0.8,0.3-1.2,0.8v3.5h-0.8v-3c0-0.5-0.1-0.8-0.2-1
				c-0.1-0.2-0.4-0.3-0.7-0.3c-0.4,0-0.8,0.3-1.2,0.8v3.5H426.8z"/>
			<path style="fill:#1A171B;" d="M435.6,301.1c-0.2,0-0.3,0-0.4-0.2s-0.2-0.2-0.2-0.4c0-0.2,0.1-0.3,0.2-0.4s0.2-0.1,0.4-0.1
				s0.3,0,0.4,0.1s0.2,0.2,0.2,0.4c0,0.2-0.1,0.3-0.2,0.4S435.7,301.1,435.6,301.1z M435.2,307v-4.9h0.8v4.9H435.2z"/>
			<path style="fill:#1A171B;" d="M439.6,307.1c-0.3,0-0.6-0.1-0.9-0.2c-0.3-0.1-0.5-0.3-0.7-0.5c-0.2-0.2-0.4-0.5-0.5-0.8
				c-0.1-0.3-0.2-0.7-0.2-1.1c0-0.4,0.1-0.8,0.2-1.1c0.1-0.3,0.3-0.6,0.5-0.8c0.2-0.2,0.5-0.4,0.7-0.5c0.3-0.1,0.6-0.2,0.9-0.2
				c0.3,0,0.6,0.1,0.8,0.2c0.2,0.1,0.4,0.2,0.6,0.4l-0.4,0.5c-0.1-0.1-0.3-0.2-0.4-0.3s-0.3-0.1-0.5-0.1c-0.2,0-0.4,0-0.6,0.1
				c-0.2,0.1-0.3,0.2-0.5,0.4s-0.2,0.4-0.3,0.6c-0.1,0.2-0.1,0.5-0.1,0.8c0,0.3,0,0.5,0.1,0.8c0.1,0.2,0.2,0.4,0.3,0.6
				c0.1,0.2,0.3,0.3,0.5,0.4c0.2,0.1,0.4,0.1,0.6,0.1c0.2,0,0.4,0,0.6-0.1c0.2-0.1,0.4-0.2,0.5-0.3l0.4,0.6
				c-0.2,0.2-0.5,0.3-0.7,0.5C440.2,307,439.9,307.1,439.6,307.1z"/>
			<path style="fill:#1A171B;" d="M444.4,307v-6.6h3.8v0.7h-3v2.1h2.5v0.7h-2.5v2.4h3.1v0.7H444.4z"/>
			<path style="fill:#1A171B;" d="M449,307l1.6-2.5l-1.5-2.3h0.9l0.7,1.1c0.1,0.1,0.2,0.3,0.2,0.4s0.2,0.3,0.3,0.4h0
				c0.1-0.1,0.1-0.3,0.2-0.4c0.1-0.1,0.1-0.3,0.2-0.4l0.6-1.1h0.9l-1.5,2.4l1.6,2.5h-0.9l-0.7-1.1c-0.1-0.1-0.2-0.3-0.3-0.4
				c-0.1-0.1-0.2-0.3-0.3-0.4h0c-0.1,0.1-0.2,0.3-0.3,0.4c-0.1,0.1-0.2,0.3-0.2,0.4l-0.7,1.1H449z"/>
			<path style="fill:#1A171B;" d="M456.1,307.1c-0.3,0-0.6-0.1-0.9-0.2c-0.3-0.1-0.5-0.3-0.7-0.5c-0.2-0.2-0.4-0.5-0.5-0.8
				c-0.1-0.3-0.2-0.7-0.2-1.1c0-0.4,0.1-0.8,0.2-1.1c0.1-0.3,0.3-0.6,0.5-0.8s0.5-0.4,0.7-0.5c0.3-0.1,0.6-0.2,0.9-0.2
				c0.3,0,0.6,0.1,0.8,0.2c0.2,0.1,0.4,0.2,0.6,0.4l-0.4,0.5c-0.1-0.1-0.3-0.2-0.4-0.3s-0.3-0.1-0.5-0.1c-0.2,0-0.4,0-0.6,0.1
				c-0.2,0.1-0.3,0.2-0.5,0.4s-0.2,0.4-0.3,0.6c-0.1,0.2-0.1,0.5-0.1,0.8c0,0.3,0,0.5,0.1,0.8c0.1,0.2,0.2,0.4,0.3,0.6
				c0.1,0.2,0.3,0.3,0.5,0.4c0.2,0.1,0.4,0.1,0.6,0.1c0.2,0,0.4,0,0.6-0.1c0.2-0.1,0.4-0.2,0.5-0.3l0.4,0.6
				c-0.2,0.2-0.5,0.3-0.7,0.5C456.7,307,456.4,307.1,456.1,307.1z"/>
			<path style="fill:#1A171B;" d="M458.8,307v-7.1h0.8v1.9l0,1c0.2-0.2,0.5-0.4,0.7-0.6c0.3-0.2,0.6-0.2,0.9-0.2
				c0.5,0,0.9,0.2,1.1,0.5c0.2,0.3,0.4,0.8,0.4,1.4v3.1h-0.8v-3c0-0.5-0.1-0.8-0.2-1c-0.1-0.2-0.4-0.3-0.7-0.3
				c-0.3,0-0.5,0.1-0.7,0.2c-0.2,0.1-0.4,0.3-0.7,0.6v3.5H458.8z"/>
			<path style="fill:#1A171B;" d="M465.4,307.1c-0.4,0-0.7-0.1-1-0.4c-0.3-0.2-0.4-0.6-0.4-1c0-0.5,0.2-0.9,0.7-1.2
				c0.5-0.3,1.2-0.5,2.3-0.6c0-0.2,0-0.3,0-0.5s-0.1-0.3-0.2-0.4c-0.1-0.1-0.2-0.2-0.3-0.3c-0.1-0.1-0.3-0.1-0.5-0.1
				c-0.3,0-0.5,0.1-0.8,0.2c-0.2,0.1-0.5,0.2-0.7,0.4l-0.3-0.6c0.2-0.1,0.5-0.3,0.8-0.4c0.3-0.1,0.7-0.2,1.1-0.2
				c0.6,0,1,0.2,1.3,0.5c0.3,0.4,0.4,0.9,0.4,1.5v3h-0.7l-0.1-0.6h0c-0.2,0.2-0.5,0.4-0.8,0.5C466,307,465.7,307.1,465.4,307.1z
				 M465.7,306.4c0.2,0,0.5-0.1,0.7-0.2c0.2-0.1,0.4-0.3,0.7-0.5v-1.4c-0.4,0.1-0.8,0.1-1,0.2c-0.3,0.1-0.5,0.2-0.7,0.3
				s-0.3,0.2-0.4,0.3c-0.1,0.1-0.1,0.3-0.1,0.4c0,0.3,0.1,0.5,0.3,0.6C465.2,306.4,465.4,306.4,465.7,306.4z"/>
			<path style="fill:#1A171B;" d="M469.4,307v-4.9h0.7l0.1,0.7h0c0.2-0.2,0.5-0.4,0.7-0.6c0.3-0.2,0.6-0.2,0.9-0.2
				c0.5,0,0.9,0.2,1.1,0.5c0.2,0.3,0.4,0.8,0.4,1.4v3.1h-0.8v-3c0-0.5-0.1-0.8-0.2-1c-0.1-0.2-0.4-0.3-0.7-0.3
				c-0.3,0-0.5,0.1-0.7,0.2c-0.2,0.1-0.4,0.3-0.7,0.6v3.5H469.4z"/>
			<path style="fill:#1A171B;" d="M476.5,309.2c-0.3,0-0.6,0-0.8-0.1c-0.2-0.1-0.5-0.1-0.6-0.3c-0.2-0.1-0.3-0.3-0.4-0.4
				c-0.1-0.2-0.1-0.3-0.1-0.6c0-0.2,0.1-0.4,0.2-0.6s0.3-0.4,0.5-0.5v0c-0.1-0.1-0.2-0.2-0.3-0.3c-0.1-0.1-0.1-0.3-0.1-0.5
				c0-0.2,0.1-0.4,0.2-0.5c0.1-0.2,0.2-0.3,0.4-0.4v0c-0.2-0.1-0.3-0.3-0.4-0.5c-0.1-0.2-0.2-0.5-0.2-0.8c0-0.3,0-0.5,0.1-0.7
				c0.1-0.2,0.2-0.4,0.4-0.5c0.2-0.2,0.4-0.3,0.6-0.3c0.2-0.1,0.5-0.1,0.7-0.1c0.1,0,0.3,0,0.4,0c0.1,0,0.2,0.1,0.3,0.1h1.7v0.6h-1
				c0.1,0.1,0.2,0.3,0.3,0.4c0.1,0.2,0.1,0.4,0.1,0.6c0,0.3,0,0.5-0.1,0.7s-0.2,0.4-0.4,0.5c-0.2,0.1-0.3,0.3-0.6,0.3
				c-0.2,0.1-0.4,0.1-0.7,0.1c-0.1,0-0.2,0-0.4,0s-0.2-0.1-0.4-0.1c-0.1,0.1-0.2,0.2-0.2,0.2c-0.1,0.1-0.1,0.2-0.1,0.3
				c0,0.2,0.1,0.3,0.2,0.4c0.1,0.1,0.3,0.2,0.7,0.2h0.9c0.6,0,1,0.1,1.3,0.3c0.3,0.2,0.4,0.5,0.4,0.9c0,0.2-0.1,0.4-0.2,0.6
				c-0.1,0.2-0.3,0.4-0.5,0.5s-0.5,0.3-0.8,0.4C477.3,309.2,476.9,309.2,476.5,309.2z M476.7,308.6c0.2,0,0.4,0,0.6-0.1
				c0.2-0.1,0.4-0.1,0.5-0.2c0.1-0.1,0.2-0.2,0.3-0.3s0.1-0.2,0.1-0.4c0-0.2-0.1-0.4-0.3-0.5c-0.2-0.1-0.4-0.1-0.7-0.1h-0.8
				c-0.1,0-0.2,0-0.3,0c-0.1,0-0.2,0-0.3-0.1c-0.2,0.1-0.3,0.3-0.4,0.4s-0.1,0.3-0.1,0.4c0,0.3,0.1,0.5,0.4,0.6
				C475.9,308.6,476.2,308.6,476.7,308.6z M476.5,304.9c0.1,0,0.3,0,0.4-0.1s0.2-0.1,0.3-0.2c0.1-0.1,0.2-0.2,0.2-0.4
				c0.1-0.1,0.1-0.3,0.1-0.5c0-0.4-0.1-0.6-0.3-0.8c-0.2-0.2-0.4-0.3-0.7-0.3c-0.3,0-0.5,0.1-0.7,0.3c-0.2,0.2-0.3,0.5-0.3,0.8
				c0,0.2,0,0.3,0.1,0.5c0.1,0.1,0.1,0.3,0.2,0.4s0.2,0.2,0.3,0.2S476.4,304.9,476.5,304.9z"/>
			<path style="fill:#1A171B;" d="M481.9,307.1c-0.3,0-0.6-0.1-0.9-0.2s-0.5-0.3-0.7-0.5c-0.2-0.2-0.4-0.5-0.5-0.8
				c-0.1-0.3-0.2-0.7-0.2-1.1s0.1-0.8,0.2-1.1s0.3-0.6,0.5-0.8c0.2-0.2,0.4-0.4,0.7-0.5c0.3-0.1,0.5-0.2,0.8-0.2
				c0.3,0,0.6,0.1,0.8,0.2c0.2,0.1,0.4,0.3,0.6,0.5c0.2,0.2,0.3,0.4,0.4,0.7s0.1,0.6,0.1,0.9c0,0.1,0,0.2,0,0.3c0,0.1,0,0.2,0,0.2
				h-3.3c0,0.5,0.2,0.9,0.5,1.2s0.7,0.5,1.1,0.5c0.2,0,0.5,0,0.6-0.1s0.4-0.2,0.6-0.3l0.3,0.5c-0.2,0.1-0.5,0.3-0.7,0.4
				S482.2,307.1,481.9,307.1z M480.3,304.1h2.6c0-0.5-0.1-0.9-0.3-1.1c-0.2-0.3-0.5-0.4-0.9-0.4c-0.2,0-0.3,0-0.5,0.1
				c-0.2,0.1-0.3,0.2-0.4,0.3c-0.1,0.1-0.2,0.3-0.3,0.5C480.4,303.7,480.4,303.9,480.3,304.1z"/>
			<path style="fill:#1A171B;" d="M488.9,307.1c-0.5,0-0.9-0.1-1.3-0.3s-0.7-0.4-1-0.7l0.5-0.6c0.2,0.2,0.5,0.4,0.8,0.6
				c0.3,0.2,0.6,0.2,1,0.2c0.4,0,0.8-0.1,1-0.3c0.2-0.2,0.4-0.5,0.4-0.8c0-0.2,0-0.3-0.1-0.4c-0.1-0.1-0.1-0.2-0.2-0.3
				s-0.2-0.2-0.3-0.2c-0.1-0.1-0.3-0.1-0.4-0.2l-0.9-0.4c-0.2-0.1-0.3-0.1-0.5-0.2c-0.2-0.1-0.3-0.2-0.4-0.3
				c-0.1-0.1-0.2-0.3-0.3-0.5c-0.1-0.2-0.1-0.4-0.1-0.6c0-0.2,0.1-0.5,0.2-0.7c0.1-0.2,0.2-0.4,0.4-0.6c0.2-0.2,0.4-0.3,0.7-0.4
				s0.5-0.1,0.8-0.1c0.4,0,0.8,0.1,1.1,0.2c0.3,0.2,0.6,0.3,0.9,0.6l-0.5,0.5c-0.2-0.2-0.4-0.3-0.7-0.5c-0.2-0.1-0.5-0.2-0.8-0.2
				c-0.4,0-0.7,0.1-0.9,0.3s-0.3,0.4-0.3,0.7c0,0.2,0,0.3,0.1,0.4s0.1,0.2,0.3,0.3c0.1,0.1,0.2,0.2,0.4,0.2s0.3,0.1,0.4,0.2l0.9,0.4
				c0.2,0.1,0.4,0.2,0.5,0.3c0.2,0.1,0.3,0.2,0.4,0.4c0.1,0.1,0.2,0.3,0.3,0.5c0.1,0.2,0.1,0.4,0.1,0.6c0,0.3-0.1,0.5-0.2,0.7
				c-0.1,0.2-0.3,0.4-0.4,0.6c-0.2,0.2-0.4,0.3-0.7,0.4S489.2,307.1,488.9,307.1z"/>
			<path style="fill:#1A171B;" d="M494.4,307.1c-0.3,0-0.6-0.1-0.9-0.2s-0.5-0.3-0.7-0.5c-0.2-0.2-0.4-0.5-0.5-0.8
				c-0.1-0.3-0.2-0.7-0.2-1.1s0.1-0.8,0.2-1.1s0.3-0.6,0.5-0.8c0.2-0.2,0.4-0.4,0.7-0.5c0.3-0.1,0.5-0.2,0.8-0.2
				c0.3,0,0.6,0.1,0.8,0.2c0.2,0.1,0.4,0.3,0.6,0.5c0.2,0.2,0.3,0.4,0.4,0.7s0.1,0.6,0.1,0.9c0,0.1,0,0.2,0,0.3c0,0.1,0,0.2,0,0.2
				h-3.3c0,0.5,0.2,0.9,0.5,1.2s0.7,0.5,1.1,0.5c0.2,0,0.5,0,0.6-0.1s0.4-0.2,0.6-0.3l0.3,0.5c-0.2,0.1-0.5,0.3-0.7,0.4
				S494.8,307.1,494.4,307.1z M492.9,304.1h2.6c0-0.5-0.1-0.9-0.3-1.1c-0.2-0.3-0.5-0.4-0.9-0.4c-0.2,0-0.3,0-0.5,0.1
				c-0.2,0.1-0.3,0.2-0.4,0.3c-0.1,0.1-0.2,0.3-0.3,0.5C493,303.7,492.9,303.9,492.9,304.1z"/>
			<path style="fill:#1A171B;" d="M497.5,307v-4.9h0.7l0.1,0.9h0c0.2-0.3,0.4-0.6,0.6-0.7s0.5-0.3,0.8-0.3c0.2,0,0.4,0,0.5,0.1
				l-0.2,0.7c-0.1,0-0.2,0-0.2-0.1c-0.1,0-0.2,0-0.2,0c-0.2,0-0.4,0.1-0.6,0.3c-0.2,0.2-0.4,0.5-0.6,0.9v3.1H497.5z"/>
			<path style="fill:#1A171B;" d="M502.4,307l-1.8-4.9h0.9l0.9,2.8c0.1,0.2,0.1,0.5,0.2,0.7c0.1,0.2,0.2,0.5,0.2,0.7h0
				c0.1-0.2,0.1-0.5,0.2-0.7c0.1-0.2,0.1-0.5,0.2-0.7l0.9-2.8h0.8l-1.7,4.9H502.4z"/>
			<path style="fill:#1A171B;" d="M506.5,301.1c-0.2,0-0.3,0-0.4-0.2s-0.2-0.2-0.2-0.4c0-0.2,0.1-0.3,0.2-0.4s0.2-0.1,0.4-0.1
				c0.2,0,0.3,0,0.4,0.1s0.2,0.2,0.2,0.4c0,0.2-0.1,0.3-0.2,0.4S506.6,301.1,506.5,301.1z M506,307v-4.9h0.8v4.9H506z"/>
			<path style="fill:#1A171B;" d="M510.4,307.1c-0.3,0-0.6-0.1-0.9-0.2c-0.3-0.1-0.5-0.3-0.7-0.5c-0.2-0.2-0.4-0.5-0.5-0.8
				c-0.1-0.3-0.2-0.7-0.2-1.1c0-0.4,0.1-0.8,0.2-1.1c0.1-0.3,0.3-0.6,0.5-0.8s0.5-0.4,0.7-0.5c0.3-0.1,0.6-0.2,0.9-0.2
				c0.3,0,0.6,0.1,0.8,0.2c0.2,0.1,0.4,0.2,0.6,0.4l-0.4,0.5c-0.1-0.1-0.3-0.2-0.4-0.3s-0.3-0.1-0.5-0.1c-0.2,0-0.4,0-0.6,0.1
				c-0.2,0.1-0.3,0.2-0.5,0.4s-0.2,0.4-0.3,0.6c-0.1,0.2-0.1,0.5-0.1,0.8c0,0.3,0,0.5,0.1,0.8c0.1,0.2,0.2,0.4,0.3,0.6
				c0.1,0.2,0.3,0.3,0.5,0.4c0.2,0.1,0.4,0.1,0.6,0.1c0.2,0,0.4,0,0.6-0.1c0.2-0.1,0.4-0.2,0.5-0.3l0.4,0.6
				c-0.2,0.2-0.5,0.3-0.7,0.5C511,307,510.7,307.1,510.4,307.1z"/>
			<path style="fill:#1A171B;" d="M515,307.1c-0.3,0-0.6-0.1-0.9-0.2s-0.5-0.3-0.7-0.5c-0.2-0.2-0.4-0.5-0.5-0.8
				c-0.1-0.3-0.2-0.7-0.2-1.1s0.1-0.8,0.2-1.1s0.3-0.6,0.5-0.8c0.2-0.2,0.4-0.4,0.7-0.5c0.3-0.1,0.5-0.2,0.8-0.2
				c0.3,0,0.6,0.1,0.8,0.2c0.2,0.1,0.4,0.3,0.6,0.5c0.2,0.2,0.3,0.4,0.4,0.7s0.1,0.6,0.1,0.9c0,0.1,0,0.2,0,0.3c0,0.1,0,0.2,0,0.2
				h-3.3c0,0.5,0.2,0.9,0.5,1.2s0.7,0.5,1.1,0.5c0.2,0,0.5,0,0.6-0.1s0.4-0.2,0.6-0.3l0.3,0.5c-0.2,0.1-0.5,0.3-0.7,0.4
				S515.3,307.1,515,307.1z M513.5,304.1h2.6c0-0.5-0.1-0.9-0.3-1.1c-0.2-0.3-0.5-0.4-0.9-0.4c-0.2,0-0.3,0-0.5,0.1
				c-0.2,0.1-0.3,0.2-0.4,0.3c-0.1,0.1-0.2,0.3-0.3,0.5C513.6,303.7,513.5,303.9,513.5,304.1z"/>
		</g>
	</g>
	<g>
		<path style="fill:#1060A7;" d="M367.5,276.9c-0.4,0-0.8-0.1-1.2-0.2c-0.4-0.2-0.7-0.4-0.9-0.7c-0.3-0.3-0.5-0.6-0.6-1.1
			c-0.1-0.4-0.2-0.9-0.2-1.4c0-0.5,0.1-1,0.2-1.4c0.1-0.4,0.4-0.8,0.6-1.1s0.6-0.5,1-0.7c0.4-0.2,0.8-0.2,1.2-0.2
			c0.2,0,0.4,0,0.6,0.1c0.2,0,0.4,0.1,0.5,0.2s0.3,0.2,0.4,0.3c0.1,0.1,0.2,0.2,0.3,0.3l-0.5,0.5c-0.2-0.2-0.4-0.3-0.6-0.4
			c-0.2-0.1-0.5-0.2-0.8-0.2c-0.3,0-0.6,0.1-0.9,0.2c-0.3,0.1-0.5,0.3-0.7,0.5c-0.2,0.2-0.3,0.5-0.4,0.8c-0.1,0.3-0.2,0.7-0.2,1.1
			c0,0.4,0,0.8,0.1,1.1s0.2,0.6,0.4,0.8c0.2,0.2,0.4,0.4,0.7,0.5c0.3,0.1,0.6,0.2,0.9,0.2c0.2,0,0.5,0,0.7-0.1
			c0.2-0.1,0.4-0.2,0.5-0.3v-1.7h-1.4v-0.7h2.1v2.8c-0.2,0.2-0.5,0.4-0.8,0.5C368.4,276.9,368,276.9,367.5,276.9z"/>
		<path style="fill:#1060A7;" d="M371.1,276.8v-6.6h3.8v0.7h-3v2.1h2.5v0.7H372v2.4h3v0.7H371.1z"/>
		<path style="fill:#1060A7;" d="M376.4,276.8v-6.6h3.8v0.7h-3v2.2h2.5v0.7h-2.5v2.9H376.4z"/>
		<path style="fill:#1060A7;" d="M383.7,276.9c-0.4,0-0.8-0.1-1.1-0.2c-0.3-0.2-0.6-0.4-0.9-0.7c-0.2-0.3-0.4-0.7-0.6-1.1
			c-0.1-0.4-0.2-0.9-0.2-1.4c0-0.5,0.1-1,0.2-1.4c0.1-0.4,0.3-0.8,0.6-1.1s0.5-0.5,0.9-0.7c0.3-0.2,0.7-0.2,1.1-0.2
			c0.4,0,0.8,0.1,1.1,0.2c0.3,0.2,0.6,0.4,0.9,0.7s0.4,0.6,0.6,1.1s0.2,0.9,0.2,1.4c0,0.5-0.1,1-0.2,1.4s-0.3,0.8-0.6,1.1
			c-0.2,0.3-0.5,0.5-0.9,0.7C384.4,276.9,384.1,276.9,383.7,276.9z M383.7,276.2c0.3,0,0.6-0.1,0.8-0.2c0.2-0.1,0.4-0.3,0.6-0.5
			c0.2-0.2,0.3-0.5,0.4-0.8c0.1-0.3,0.1-0.7,0.1-1.1c0-0.4,0-0.8-0.1-1.1c-0.1-0.3-0.2-0.6-0.4-0.8c-0.2-0.2-0.4-0.4-0.6-0.5
			c-0.2-0.1-0.5-0.2-0.8-0.2s-0.6,0.1-0.8,0.2c-0.2,0.1-0.4,0.3-0.6,0.5c-0.2,0.2-0.3,0.5-0.4,0.8c-0.1,0.3-0.1,0.7-0.1,1.1
			c0,0.4,0,0.8,0.1,1.1c0.1,0.3,0.2,0.6,0.4,0.8c0.2,0.2,0.4,0.4,0.6,0.5C383.1,276.1,383.4,276.2,383.7,276.2z M382.6,269.7
			c-0.1,0-0.3,0-0.4-0.1s-0.1-0.2-0.1-0.4c0-0.1,0-0.3,0.1-0.4c0.1-0.1,0.2-0.1,0.4-0.1c0.1,0,0.3,0,0.4,0.1
			c0.1,0.1,0.1,0.2,0.1,0.4c0,0.1,0,0.3-0.1,0.4S382.8,269.7,382.6,269.7z M384.7,269.7c-0.1,0-0.3,0-0.4-0.1
			c-0.1-0.1-0.1-0.2-0.1-0.4c0-0.1,0-0.3,0.1-0.4c0.1-0.1,0.2-0.1,0.4-0.1c0.1,0,0.3,0,0.4,0.1c0.1,0.1,0.1,0.2,0.1,0.4
			c0,0.1,0,0.3-0.1,0.4C384.9,269.6,384.8,269.7,384.7,269.7z"/>
		<path style="fill:#1060A7;" d="M387.9,276.8v-6.6h2c0.3,0,0.6,0,0.9,0.1s0.5,0.2,0.7,0.3c0.2,0.1,0.4,0.3,0.5,0.6s0.2,0.5,0.2,0.9
			c0,0.5-0.1,0.9-0.4,1.2c-0.3,0.3-0.6,0.5-1.1,0.6l1.7,2.9h-0.9l-1.6-2.8h-1.2v2.8H387.9z M388.7,273.4h1.1c0.5,0,0.9-0.1,1.2-0.3
			s0.4-0.5,0.4-1c0-0.4-0.1-0.7-0.4-0.9s-0.7-0.3-1.2-0.3h-1.1V273.4z"/>
		<path style="fill:#1060A7;" d="M393.6,276.8v-6.6h1.6c1,0,1.8,0.3,2.3,0.8c0.5,0.6,0.8,1.4,0.8,2.4c0,0.5-0.1,1-0.2,1.4
			c-0.1,0.4-0.3,0.8-0.6,1c-0.3,0.3-0.6,0.5-1,0.6s-0.8,0.2-1.3,0.2H393.6z M394.4,276.1h0.8c0.8,0,1.3-0.2,1.7-0.7
			c0.4-0.5,0.6-1.1,0.6-1.9c0-0.8-0.2-1.5-0.6-1.9c-0.4-0.4-1-0.7-1.7-0.7h-0.8V276.1z"/>
		<path style="fill:#1060A7;" d="M399.7,276.8v-6.6h3.8v0.7h-2.9v2.1h2.5v0.7h-2.5v2.4h3v0.7H399.7z"/>
		<path style="fill:#1060A7;" d="M405,276.8v-6.6h2c0.3,0,0.6,0,0.9,0.1s0.5,0.2,0.7,0.3c0.2,0.1,0.4,0.3,0.5,0.6s0.2,0.5,0.2,0.9
			c0,0.5-0.1,0.9-0.4,1.2c-0.3,0.3-0.6,0.5-1.1,0.6l1.7,2.9h-0.9L407,274h-1.2v2.8H405z M405.8,273.4h1.1c0.5,0,0.9-0.1,1.2-0.3
			s0.4-0.5,0.4-1c0-0.4-0.1-0.7-0.4-0.9s-0.7-0.3-1.2-0.3h-1.1V273.4z"/>
		<path style="fill:#1060A7;" d="M411.9,276.8V271h-2v-0.7h4.8v0.7h-2v5.9H411.9z"/>
		<path style="fill:#1060A7;" d="M417.9,276.8v-6.6h0.8v6.6H417.9z"/>
		<path style="fill:#1060A7;" d="M420.5,276.8v-6.6h1l1.3,3.5c0.1,0.2,0.2,0.5,0.2,0.7c0.1,0.2,0.2,0.5,0.2,0.7h0
			c0.1-0.2,0.2-0.5,0.2-0.7c0.1-0.2,0.1-0.5,0.2-0.7l1.2-3.5h1v6.6h-0.8v-3.6c0-0.3,0-0.6,0-1c0-0.4,0-0.7,0.1-1h0l-0.5,1.5
			l-1.2,3.4H423l-1.2-3.4l-0.5-1.5h0c0,0.3,0,0.6,0.1,1c0,0.4,0,0.7,0,1v3.6H420.5z"/>
		<path style="fill:#1060A7;" d="M429.8,276.8v-6.6h1.6c1,0,1.8,0.3,2.3,0.8c0.5,0.6,0.8,1.4,0.8,2.4c0,0.5-0.1,1-0.2,1.4
			c-0.1,0.4-0.3,0.8-0.6,1c-0.3,0.3-0.6,0.5-1,0.6s-0.8,0.2-1.3,0.2H429.8z M430.6,276.1h0.8c0.8,0,1.3-0.2,1.7-0.7
			c0.4-0.5,0.6-1.1,0.6-1.9c0-0.8-0.2-1.5-0.6-1.9c-0.4-0.4-1-0.7-1.7-0.7h-0.8V276.1z"/>
		<path style="fill:#1060A7;" d="M435,276.8l2.2-6.6h0.9l2.2,6.6h-0.9l-0.6-2h-2.4l-0.6,2H435z M437,273.1l-0.3,1h2l-0.3-1
			c-0.1-0.4-0.2-0.7-0.3-1.1c-0.1-0.4-0.2-0.7-0.3-1.1h0c-0.1,0.4-0.2,0.8-0.3,1.1C437.2,272.4,437.1,272.8,437,273.1z"/>
		<path style="fill:#1060A7;" d="M440.4,276.8l2.2-6.6h0.9l2.2,6.6h-0.9l-0.6-2h-2.4l-0.6,2H440.4z M442.4,273.1l-0.3,1h2l-0.3-1
			c-0.1-0.4-0.2-0.7-0.3-1.1c-0.1-0.4-0.2-0.7-0.3-1.1h0c-0.1,0.4-0.2,0.8-0.3,1.1C442.6,272.4,442.5,272.8,442.4,273.1z"/>
		<path style="fill:#1060A7;" d="M446.7,276.8v-6.6h1.6c1,0,1.8,0.3,2.3,0.8c0.5,0.6,0.8,1.4,0.8,2.4c0,0.5-0.1,1-0.2,1.4
			c-0.1,0.4-0.3,0.8-0.6,1c-0.3,0.3-0.6,0.5-1,0.6s-0.8,0.2-1.3,0.2H446.7z M447.5,276.1h0.8c0.8,0,1.3-0.2,1.7-0.7
			c0.4-0.5,0.6-1.1,0.6-1.9c0-0.8-0.2-1.5-0.6-1.9c-0.4-0.4-1-0.7-1.7-0.7h-0.8V276.1z"/>
		<path style="fill:#1060A7;" d="M452.3,274.6V274h2.3v0.6H452.3z"/>
		<path style="fill:#1060A7;" d="M455.9,276.8v-6.6h0.8v5.9h2.9v0.7H455.9z"/>
		<path style="fill:#1060A7;" d="M460.8,276.8v-6.6h3.8v0.7h-2.9v2.1h2.5v0.7h-2.5v2.4h3v0.7H460.8z"/>
		<path style="fill:#1060A7;" d="M466.1,276.8v-6.6h0.8v3.3h0l2.7-3.3h0.9l-2,2.5l2.4,4.1H470l-2-3.4l-1.1,1.3v2.1H466.1z"/>
		<path style="fill:#1060A7;" d="M473,276.8V271h-2v-0.7h4.8v0.7h-2v5.9H473z"/>
		<path style="fill:#1060A7;" d="M479.2,276.9c-0.4,0-0.8-0.1-1.1-0.2c-0.3-0.2-0.6-0.4-0.9-0.7c-0.2-0.3-0.4-0.7-0.6-1.1
			s-0.2-0.9-0.2-1.4c0-0.5,0.1-1,0.2-1.4c0.1-0.4,0.3-0.8,0.6-1.1c0.2-0.3,0.5-0.5,0.9-0.7c0.3-0.2,0.7-0.2,1.1-0.2
			c0.4,0,0.8,0.1,1.1,0.2c0.3,0.2,0.6,0.4,0.9,0.7s0.4,0.6,0.6,1.1s0.2,0.9,0.2,1.4c0,0.5-0.1,1-0.2,1.4s-0.3,0.8-0.6,1.1
			c-0.2,0.3-0.5,0.5-0.9,0.7C480,276.9,479.6,276.9,479.2,276.9z M479.2,276.2c0.3,0,0.6-0.1,0.8-0.2c0.2-0.1,0.4-0.3,0.6-0.5
			c0.2-0.2,0.3-0.5,0.4-0.8c0.1-0.3,0.1-0.7,0.1-1.1c0-0.4,0-0.8-0.1-1.1c-0.1-0.3-0.2-0.6-0.4-0.8c-0.2-0.2-0.4-0.4-0.6-0.5
			c-0.2-0.1-0.5-0.2-0.8-0.2c-0.3,0-0.6,0.1-0.8,0.2c-0.2,0.1-0.4,0.3-0.6,0.5c-0.2,0.2-0.3,0.5-0.4,0.8c-0.1,0.3-0.1,0.7-0.1,1.1
			c0,0.4,0,0.8,0.1,1.1c0.1,0.3,0.2,0.6,0.4,0.8c0.2,0.2,0.4,0.4,0.6,0.5C478.7,276.1,478.9,276.2,479.2,276.2z"/>
		<path style="fill:#1060A7;" d="M483.4,276.8v-6.6h2c0.3,0,0.6,0,0.9,0.1s0.5,0.2,0.7,0.3c0.2,0.1,0.4,0.3,0.5,0.6s0.2,0.5,0.2,0.9
			c0,0.5-0.1,0.9-0.4,1.2c-0.3,0.3-0.6,0.5-1.1,0.6l1.7,2.9H487l-1.6-2.8h-1.2v2.8H483.4z M484.3,273.4h1.1c0.5,0,0.9-0.1,1.2-0.3
			s0.4-0.5,0.4-1c0-0.4-0.1-0.7-0.4-0.9s-0.7-0.3-1.2-0.3h-1.1V273.4z"/>
		<path style="fill:#1060A7;" d="M489.1,276.8v-6.6h3.8v0.7H490v2.1h2.5v0.7H490v2.4h3v0.7H489.1z"/>
		<path style="fill:#1060A7;" d="M494.4,276.8v-6.6h0.9l2.4,4.1l0.7,1.4h0c0-0.3,0-0.7-0.1-1c0-0.4,0-0.7,0-1.1v-3.4h0.8v6.6h-0.9
			l-2.4-4.1l-0.7-1.4h0c0,0.3,0.1,0.7,0.1,1s0,0.7,0,1v3.4H494.4z"/>
		<path style="fill:#1060A7;" d="M500.9,276.8v-6.6h1.9c0.4,0,0.7,0,1,0.1c0.3,0.1,0.6,0.2,0.8,0.3c0.2,0.1,0.4,0.3,0.5,0.6
			s0.2,0.5,0.2,0.9c0,0.3-0.1,0.6-0.2,0.9c-0.1,0.3-0.3,0.5-0.5,0.6c-0.2,0.2-0.5,0.3-0.8,0.4c-0.3,0.1-0.6,0.1-1,0.1h-1.1v2.6
			H500.9z M501.7,273.5h1c0.6,0,1-0.1,1.3-0.3c0.3-0.2,0.4-0.6,0.4-1c0-0.5-0.1-0.8-0.4-1c-0.3-0.2-0.7-0.3-1.3-0.3h-0.9V273.5z"/>
		<path style="fill:#1060A7;" d="M506.5,276.8v-6.6h2c0.3,0,0.6,0,0.9,0.1s0.5,0.2,0.7,0.3c0.2,0.1,0.4,0.3,0.5,0.6s0.2,0.5,0.2,0.9
			c0,0.5-0.1,0.9-0.4,1.2c-0.3,0.3-0.6,0.5-1.1,0.6l1.7,2.9h-0.9l-1.6-2.8h-1.2v2.8H506.5z M507.4,273.4h1.1c0.5,0,0.9-0.1,1.2-0.3
			s0.4-0.5,0.4-1c0-0.4-0.1-0.7-0.4-0.9s-0.7-0.3-1.2-0.3h-1.1V273.4z"/>
		<path style="fill:#1060A7;" d="M514.6,276.9c-0.4,0-0.8-0.1-1.1-0.2c-0.3-0.2-0.6-0.4-0.9-0.7c-0.2-0.3-0.4-0.7-0.6-1.1
			s-0.2-0.9-0.2-1.4c0-0.5,0.1-1,0.2-1.4c0.1-0.4,0.3-0.8,0.6-1.1c0.2-0.3,0.5-0.5,0.9-0.7c0.3-0.2,0.7-0.2,1.1-0.2
			c0.4,0,0.8,0.1,1.1,0.2c0.3,0.2,0.6,0.4,0.9,0.7s0.4,0.6,0.6,1.1s0.2,0.9,0.2,1.4c0,0.5-0.1,1-0.2,1.4s-0.3,0.8-0.6,1.1
			c-0.2,0.3-0.5,0.5-0.9,0.7C515.4,276.9,515,276.9,514.6,276.9z M514.6,276.2c0.3,0,0.6-0.1,0.8-0.2c0.2-0.1,0.4-0.3,0.6-0.5
			c0.2-0.2,0.3-0.5,0.4-0.8c0.1-0.3,0.1-0.7,0.1-1.1c0-0.4,0-0.8-0.1-1.1c-0.1-0.3-0.2-0.6-0.4-0.8c-0.2-0.2-0.4-0.4-0.6-0.5
			c-0.2-0.1-0.5-0.2-0.8-0.2c-0.3,0-0.6,0.1-0.8,0.2c-0.2,0.1-0.4,0.3-0.6,0.5c-0.2,0.2-0.3,0.5-0.4,0.8c-0.1,0.3-0.1,0.7-0.1,1.1
			c0,0.4,0,0.8,0.1,1.1c0.1,0.3,0.2,0.6,0.4,0.8c0.2,0.2,0.4,0.4,0.6,0.5C514.1,276.1,514.3,276.2,514.6,276.2z"/>
		<path style="fill:#1060A7;" d="M521.4,276.9c-0.4,0-0.8-0.1-1.2-0.2s-0.7-0.4-0.9-0.7c-0.3-0.3-0.5-0.6-0.6-1.1
			c-0.1-0.4-0.2-0.9-0.2-1.4c0-0.5,0.1-1,0.2-1.4c0.1-0.4,0.4-0.8,0.6-1.1s0.6-0.5,1-0.7s0.8-0.2,1.2-0.2c0.2,0,0.4,0,0.6,0.1
			c0.2,0,0.4,0.1,0.5,0.2c0.2,0.1,0.3,0.2,0.4,0.3c0.1,0.1,0.2,0.2,0.3,0.3l-0.5,0.5c-0.2-0.2-0.4-0.3-0.6-0.4s-0.5-0.2-0.8-0.2
			s-0.6,0.1-0.9,0.2c-0.3,0.1-0.5,0.3-0.7,0.5s-0.3,0.5-0.4,0.8s-0.2,0.7-0.2,1.1c0,0.4,0,0.8,0.1,1.1c0.1,0.3,0.2,0.6,0.4,0.8
			c0.2,0.2,0.4,0.4,0.7,0.5c0.3,0.1,0.6,0.2,0.9,0.2c0.2,0,0.5,0,0.7-0.1c0.2-0.1,0.4-0.2,0.5-0.3v-1.7h-1.4v-0.7h2.2v2.8
			c-0.2,0.2-0.5,0.4-0.8,0.5C522.3,276.9,521.9,276.9,521.4,276.9z"/>
		<path style="fill:#1060A7;" d="M525,276.8v-6.6h2c0.3,0,0.6,0,0.9,0.1s0.5,0.2,0.7,0.3c0.2,0.1,0.4,0.3,0.5,0.6s0.2,0.5,0.2,0.9
			c0,0.5-0.1,0.9-0.4,1.2c-0.3,0.3-0.6,0.5-1.1,0.6l1.7,2.9h-0.9L527,274h-1.2v2.8H525z M525.9,273.4h1.1c0.5,0,0.9-0.1,1.2-0.3
			s0.4-0.5,0.4-1c0-0.4-0.1-0.7-0.4-0.9s-0.7-0.3-1.2-0.3h-1.1V273.4z"/>
		<path style="fill:#1060A7;" d="M529.8,276.8l2.2-6.6h0.9l2.2,6.6h-0.9l-0.6-2h-2.4l-0.6,2H529.8z M531.8,273.1l-0.3,1h2l-0.3-1
			c-0.1-0.4-0.2-0.7-0.3-1.1c-0.1-0.4-0.2-0.7-0.3-1.1h0c-0.1,0.4-0.2,0.8-0.3,1.1C532,272.4,531.9,272.8,531.8,273.1z"/>
		<path style="fill:#1060A7;" d="M536.1,276.8v-6.6h1l1.3,3.5c0.1,0.2,0.2,0.5,0.2,0.7c0.1,0.2,0.2,0.5,0.2,0.7h0
			c0.1-0.2,0.2-0.5,0.2-0.7c0.1-0.2,0.1-0.5,0.2-0.7l1.2-3.5h1v6.6h-0.8v-3.6c0-0.3,0-0.6,0-1c0-0.4,0-0.7,0.1-1h0l-0.5,1.5
			l-1.2,3.4h-0.6l-1.2-3.4l-0.5-1.5h0c0,0.3,0,0.6,0.1,1c0,0.4,0,0.7,0,1v3.6H536.1z"/>
		<path style="fill:#1060A7;" d="M543.4,276.8v-6.6h1l1.3,3.5c0.1,0.2,0.2,0.5,0.2,0.7c0.1,0.2,0.2,0.5,0.2,0.7h0
			c0.1-0.2,0.2-0.5,0.2-0.7c0.1-0.2,0.1-0.5,0.2-0.7l1.2-3.5h1v6.6h-0.8v-3.6c0-0.3,0-0.6,0-1c0-0.4,0-0.7,0.1-1h0l-0.5,1.5
			l-1.2,3.4h-0.6l-1.2-3.4l-0.5-1.5h0c0,0.3,0,0.6,0.1,1c0,0.4,0,0.7,0,1v3.6H543.4z"/>
	</g>
</g>
</svg>
